# xmcd CD database file
#
# Track frame offsets:
#	150
#	16844
#	34084
#	52169
#	68820
#	87085
#	101840
#	119109
#	136576
#	148217
#
# Disc length: 2218 seconds
#
# Revision: 0
# Processed by: cddbd v1.5.2PL0 Copyright (c) Steve Scherf et al.
# Submitted via: CDex 1.51
#
DISCID=8e08a80a
DTITLE=Dionis y la Banda Flakka - El que pierde, gana
DYEAR=1999
DGENRE=Merengue
TTITLE0=Quien manda aquí
TTITLE1=El bultero
TTITLE2=Te olvidaste de mi
TTITLE3=El fieston
TTITLE4=El majarete
TTITLE5=Tu canta (el animal)
TTITLE6=Los cuernos
TTITLE7=La celosa
TTITLE8=Besos de pinta labios
TTITLE9=La chica sexy
EXTD=YEAR: 1999
EXTT0=
EXTT1=
EXTT2=
EXTT3=
EXTT4=
EXTT5=
EXTT6=
EXTT7=
EXTT8=
EXTT9=
PLAYORDER=
